<?xml version="1.0" encoding="UTF-8"?>
<svg width="15px" height="15px" viewBox="0 0 15 15" version="1.1" xmlns="http://www.w3.org/2000/svg" xmlns:xlink="http://www.w3.org/1999/xlink">
    <title>logo</title>
    <defs>
        <linearGradient x1="50%" y1="0%" x2="50%" y2="68.8747227%" id="linearGradient-1">
            <stop stop-color="#B97300" offset="0%"></stop>
            <stop stop-color="#000000" offset="100%"></stop>
        </linearGradient>
        <linearGradient x1="7.33910817%" y1="43.4564565%" x2="63.6426615%" y2="56.3992397%" id="linearGradient-2">
            <stop stop-color="#FFE8AD" offset="0%"></stop>
            <stop stop-color="#FFB228" offset="100%"></stop>
        </linearGradient>
        <linearGradient x1="50%" y1="5.40912769%" x2="50.6653702%" y2="47.2419456%" id="linearGradient-3">
            <stop stop-color="#FFE29D" offset="0%"></stop>
            <stop stop-color="#FFB329" offset="100%"></stop>
        </linearGradient>
        <radialGradient cx="50%" cy="36.9718591%" fx="50%" fy="36.9718591%" r="61.5277953%" gradientTransform="translate(0.500000,0.369719),scale(0.569767,1.000000),rotate(90.000000),scale(1.000000,1.734401),translate(-0.500000,-0.369719)" id="radialGradient-4">
            <stop stop-color="#FFFFFF" stop-opacity="0.329518138" offset="0%"></stop>
            <stop stop-color="#FBFBFB" offset="49.1454144%"></stop>
            <stop stop-color="#E6E6E6" offset="100%"></stop>
        </radialGradient>
        <radialGradient cx="45.6679233%" cy="29.3197943%" fx="45.6679233%" fy="29.3197943%" r="36.8303571%" gradientTransform="translate(0.456679,0.293198),scale(0.569767,1.000000),rotate(90.000000),translate(-0.456679,-0.293198)" id="radialGradient-5">
            <stop stop-color="#FFFFFF" offset="0%"></stop>
            <stop stop-color="#FFFFFF" stop-opacity="0" offset="100%"></stop>
        </radialGradient>
        <ellipse id="path-6" cx="4.35820313" cy="6.2859375" rx="3.628125" ry="2.0671875"></ellipse>
        <filter x="-20.7%" y="-36.3%" width="141.3%" height="172.6%" filterUnits="objectBoundingBox" id="filter-7">
            <feOffset dx="0" dy="-0" in="SourceAlpha" result="shadowOffsetOuter1"></feOffset>
            <feGaussianBlur stdDeviation="0.5" in="shadowOffsetOuter1" result="shadowBlurOuter1"></feGaussianBlur>
            <feColorMatrix values="0 0 0 0 0.847033514   0 0 0 0 0.847033514   0 0 0 0 0.847033514  0 0 0 0.188237544 0" type="matrix" in="shadowBlurOuter1"></feColorMatrix>
        </filter>
        <radialGradient cx="50%" cy="37.5838884%" fx="50%" fy="37.5838884%" r="59.4619817%" gradientTransform="translate(0.500000,0.375839),scale(0.651163,1.000000),rotate(90.000000),scale(1.000000,1.734401),translate(-0.500000,-0.375839)" id="radialGradient-8">
            <stop stop-color="#FFD6C9" offset="0%"></stop>
            <stop stop-color="#FFE3D0" offset="49.6648015%"></stop>
            <stop stop-color="#FFBF9A" offset="100%"></stop>
        </radialGradient>
        <radialGradient cx="45.6679233%" cy="29.3197943%" fx="45.6679233%" fy="29.3197943%" r="36.8303571%" gradientTransform="translate(0.456679,0.293198),scale(0.651163,1.000000),rotate(90.000000),translate(-0.456679,-0.293198)" id="radialGradient-9">
            <stop stop-color="#FFFFFF" offset="0%"></stop>
            <stop stop-color="#FFFFFF" stop-opacity="0" offset="100%"></stop>
        </radialGradient>
        <path d="M2.34946884,2.9107147 C3.00712511,2.82648823 3.66829082,2.784375 4.33296596,2.784375 C5.01421298,2.784375 5.69546,2.82861437 6.37670702,2.91709311 C7.70500808,3.08957756 8.69899554,4.22101007 8.69899554,5.56046317 C8.69899554,6.92279362 7.70304807,8.08046215 6.3559923,8.28389521 C5.67799293,8.3862984 5.00365082,8.4375 4.33296596,8.4375 C3.67940182,8.4375 3.02583767,8.38887911 2.37227353,8.29163732 C1.01913149,8.09029371 0.0174107143,6.92850288 0.0174107143,5.56046317 C0.0174107143,4.21628275 1.01617548,3.08144792 2.34946884,2.9107147 Z" id="path-10"></path>
    </defs>
    <g id="网站" stroke="none" stroke-width="1" fill="none" fill-rule="evenodd">
        <g id="logo">
            <circle id="椭圆形" fill="#FFFFFF" cx="7.5" cy="7.5" r="7.5"></circle>
            <g id="编组" transform="translate(3.154297, 3.125000)">
                <path d="M6.67338553,0.0987737075 C6.72271597,0.162882889 6.73843474,0.246708093 6.71568227,0.324334147 L6.39016764,1.4349135 L5.49986591,0.682379717 L6.31841244,0.052528336 C6.42920586,-0.0327244703 6.58813273,-0.0120197122 6.67338553,0.0987737075 Z M1.96384629,0.0987737075 C2.0490991,-0.0120197122 2.20802597,-0.0327244703 2.31881939,0.052528336 L2.31881939,0.052528336 L3.13736591,0.682379717 L2.24706419,1.4349135 L1.92154955,0.324334147 C1.89879709,0.246708093 1.91451586,0.162882889 1.96384629,0.0987737075 Z" id="形状结合" fill="url(#linearGradient-1)"></path>
                <ellipse id="椭圆形" fill="url(#linearGradient-2)" transform="translate(1.447266, 1.603125) rotate(-345.000000) translate(-1.447266, -1.603125) " cx="1.44726562" cy="1.603125" rx="1.0546875" ry="1"></ellipse>
                <ellipse id="椭圆形备份" fill="url(#linearGradient-2)" transform="translate(7.184766, 1.603125) scale(-1, 1) rotate(-345.000000) translate(-7.184766, -1.603125) " cx="7.18476562" cy="1.603125" rx="1.0546875" ry="1"></ellipse>
                <g id="编组-3" transform="translate(0.000000, 0.421875)">
                    <rect id="矩形" fill="url(#linearGradient-3)" x="1.15195312" y="0" width="6.4125" height="6.75" rx="3.20625"></rect>
                    <g id="椭圆形">
                        <use fill="black" fill-opacity="1" filter="url(#filter-7)" xlink:href="#path-6"></use>
                        <use fill="url(#radialGradient-4)" fill-rule="evenodd" xlink:href="#path-6"></use>
                        <use fill="url(#radialGradient-5)" fill-rule="evenodd" xlink:href="#path-6"></use>
                    </g>
                    <g id="矩形">
                        <use fill="url(#radialGradient-8)" xlink:href="#path-10"></use>
                        <use fill="url(#radialGradient-9)" xlink:href="#path-10"></use>
                    </g>
                </g>
                <rect id="矩形" stroke="#FFFDF5" stroke-width="0.5" fill="#000000" transform="translate(3.261328, 2.531250) rotate(-270.000000) translate(-3.261328, -2.531250) " x="3.08945313" y="2.359375" width="1" height="1" rx="0.421875"></rect>
                <rect id="矩形备份" stroke="#FFFDF5" stroke-width="0.5" fill="#000000" transform="translate(5.370703, 2.531250) rotate(-270.000000) translate(-5.370703, -2.531250) " x="5.19882813" y="2.359375" width="1" height="1" rx="0.421875"></rect>
                <path d="M2.36735992,4.78291792 C2.44034932,4.77243097 2.51333872,4.7671875 2.58632812,4.7671875 C2.65931753,4.7671875 2.73230693,4.77243097 2.80529633,4.78291792 C3.09123044,4.82397935 3.30351562,5.06894513 3.30351562,5.3578125 C3.30351562,5.64667987 3.09123044,5.89164565 2.80529633,5.93270708 C2.73230693,5.94319403 2.65931753,5.9484375 2.58632812,5.9484375 C2.51333872,5.9484375 2.44034932,5.94319403 2.36735992,5.93270708 C2.08142581,5.89164565 1.86914062,5.64667987 1.86914062,5.3578125 C1.86914062,5.06894513 2.08142581,4.82397935 2.36735992,4.78291792 Z" id="矩形备份-3" fill="#000000" transform="translate(2.586328, 5.357812) rotate(-270.000000) translate(-2.586328, -5.357812) "></path>
                <path d="M5.91110992,4.78291792 C5.98409932,4.77243097 6.05708872,4.7671875 6.13007813,4.7671875 C6.20306753,4.7671875 6.27605693,4.77243097 6.34904633,4.78291792 C6.63498044,4.82397935 6.84726563,5.06894513 6.84726563,5.3578125 C6.84726563,5.64667987 6.63498044,5.89164565 6.34904633,5.93270708 C6.27605693,5.94319403 6.20306753,5.9484375 6.13007813,5.9484375 C6.05708872,5.9484375 5.98409932,5.94319403 5.91110992,5.93270708 C5.62517581,5.89164565 5.41289063,5.64667987 5.41289063,5.3578125 C5.41289063,5.06894513 5.62517581,4.82397935 5.91110992,4.78291792 Z" id="矩形备份-4" fill="#000000" transform="translate(6.130078, 5.357812) rotate(-270.000000) translate(-6.130078, -5.357812) "></path>
            </g>
        </g>
    </g>
</svg>